<svg width="14" height="14" viewBox="0 0 14 14" fill="none" xmlns="http://www.w3.org/2000/svg">
<path d="M13.5 0.499938H0.500033C0.413415 0.499933 0.328281 0.522429 0.252973 0.565223C0.177665 0.608017 0.114765 0.669641 0.0704373 0.744056C0.0261094 0.818472 0.00187351 0.903126 0.00010433 0.989726C-0.00166485 1.07633 0.0190934 1.1619 0.0603451 1.23806L6.56034 13.2381C6.60324 13.3173 6.66674 13.3834 6.74413 13.4296C6.82153 13.4757 6.90994 13.5 7.00003 13.5C7.09012 13.5 7.17853 13.4757 7.25593 13.4296C7.33333 13.3834 7.39683 13.3173 7.43972 13.2381L13.9397 1.23806C13.981 1.1619 14.0017 1.07633 14 0.989726C13.9982 0.903126 13.974 0.818472 13.9296 0.744056C13.8853 0.669641 13.8224 0.608017 13.7471 0.565223C13.6718 0.522429 13.5867 0.499933 13.5 0.499938Z" fill="#F50000"/>
</svg>
