<svg width="20" height="20" viewBox="0 0 20 20" fill="none" xmlns="http://www.w3.org/2000/svg">
<g clip-path="url(#clip0_3488_1542)">
<path d="M5.83317 9.16602L9.1665 1.66602C9.82954 1.66602 10.4654 1.92941 10.9343 2.39825C11.4031 2.86709 11.6665 3.50297 11.6665 4.16602V7.49935H16.3832C16.6248 7.49661 16.8641 7.54644 17.0845 7.64536C17.3049 7.74429 17.5012 7.88996 17.6597 8.07228C17.8183 8.25459 17.9353 8.4692 18.0026 8.70122C18.07 8.93325 18.0861 9.17715 18.0498 9.41602L16.8998 16.916C16.8396 17.3134 16.6377 17.6757 16.3314 17.936C16.0252 18.1964 15.6351 18.3372 15.2332 18.3327H5.83317M5.83317 9.16602V18.3327M5.83317 9.16602H3.33317C2.89114 9.16602 2.46722 9.34161 2.15466 9.65417C1.8421 9.96673 1.6665 10.3907 1.6665 10.8327V16.666C1.6665 17.108 1.8421 17.532 2.15466 17.8445C2.46722 18.1571 2.89114 18.3327 3.33317 18.3327H5.83317" stroke="#A7A7A7" stroke-width="2" stroke-linecap="round" stroke-linejoin="round"/>
</g>
<defs>
<clipPath id="clip0_3488_1542">
<rect width="20" height="20" fill="white"/>
</clipPath>
</defs>
</svg>
