<svg width="14" height="14" viewBox="0 0 14 14" fill="none" xmlns="http://www.w3.org/2000/svg">
<path d="M13.5 13.5001H0.500033C0.413415 13.5001 0.328281 13.4776 0.252973 13.4348C0.177665 13.392 0.114765 13.3304 0.0704373 13.2559C0.0261094 13.1815 0.00187351 13.0969 0.00010433 13.0103C-0.00166485 12.9237 0.0190934 12.8381 0.0603451 12.7619L6.56034 0.761935C6.60324 0.682714 6.66674 0.616553 6.74413 0.570446C6.82153 0.52434 6.90994 0.5 7.00003 0.5C7.09012 0.5 7.17853 0.52434 7.25593 0.570446C7.33333 0.616553 7.39683 0.682714 7.43972 0.761935L13.9397 12.7619C13.981 12.8381 14.0017 12.9237 14 13.0103C13.9982 13.0969 13.974 13.1815 13.9296 13.2559C13.8853 13.3304 13.8224 13.392 13.7471 13.4348C13.6718 13.4776 13.5867 13.5001 13.5 13.5001Z" fill="#246AE3"/>
</svg>
