<svg width="16" height="16" viewBox="0 0 16 16" fill="none" xmlns="http://www.w3.org/2000/svg">
<path fill-rule="evenodd" clip-rule="evenodd" d="M7.99994 3C8.27608 3 8.49994 3.22386 8.49994 3.5V7.5H12.4999C12.7761 7.5 12.9999 7.72386 12.9999 8C12.9999 8.27614 12.7761 8.5 12.4999 8.5H8.49994V12.5C8.49994 12.7761 8.27608 13 7.99994 13C7.7238 13 7.49994 12.7761 7.49994 12.5V8.5H3.49994C3.2238 8.5 2.99994 8.27614 2.99994 8C2.99994 7.72386 3.2238 7.5 3.49994 7.5H7.49994V3.5C7.49994 3.22386 7.7238 3 7.99994 3Z" fill="black"/>
</svg>
