<svg width="81" height="81" viewBox="0 0 81 81" fill="none" xmlns="http://www.w3.org/2000/svg">
<path d="M81 40.5C81 51.2413 76.733 61.5426 69.1378 69.1378C61.5426 76.733 51.2413 81 40.5 81C29.7587 81 19.4574 76.733 11.8622 69.1378C4.26695 61.5426 0 51.2413 0 40.5C0 29.7587 4.26695 19.4574 11.8622 11.8622C19.4574 4.26695 29.7587 0 40.5 0C51.2413 0 61.5426 4.26695 69.1378 11.8622C76.733 19.4574 81 29.7587 81 40.5ZM60.9019 25.1606C60.5403 24.8003 60.1097 24.5165 59.6359 24.3264C59.1621 24.1363 58.6549 24.0436 58.1444 24.054C57.634 24.0644 57.131 24.1776 56.6653 24.3869C56.1997 24.5962 55.781 24.8972 55.4344 25.272L37.8523 47.6736L27.2565 37.0727C26.5367 36.402 25.5848 36.0369 24.6011 36.0542C23.6175 36.0716 22.6789 36.4701 21.9833 37.1657C21.2876 37.8614 20.8892 38.7999 20.8718 39.7835C20.8544 40.7672 21.2196 41.7192 21.8902 42.4389L35.2856 55.8394C35.6465 56.1996 36.0762 56.4834 36.5491 56.6739C37.0221 56.8645 37.5285 56.9578 38.0383 56.9484C38.5481 56.9389 39.0508 56.8269 39.5163 56.6189C39.9819 56.411 40.4008 56.1115 40.7481 55.7381L60.9576 30.4762C61.6465 29.7599 62.0271 28.802 62.0177 27.8081C62.0082 26.8142 61.6094 25.8637 60.9069 25.1606H60.9019Z" fill="#FFCC00"/>
</svg>
