<svg width="81" height="81" viewBox="0 0 81 81" fill="none" xmlns="http://www.w3.org/2000/svg">
<path d="M81 40.5C81 51.2413 76.733 61.5426 69.1378 69.1378C61.5426 76.733 51.2413 81 40.5 81C29.7587 81 19.4574 76.733 11.8622 69.1378C4.26695 61.5426 0 51.2413 0 40.5C0 29.7587 4.26695 19.4574 11.8622 11.8622C19.4574 4.26695 29.7587 0 40.5 0C51.2413 0 61.5426 4.26695 69.1378 11.8622C76.733 19.4574 81 29.7587 81 40.5ZM40.5 20.25C39.8601 20.2504 39.2274 20.3848 38.6427 20.6445C38.0579 20.9043 37.534 21.2836 37.1048 21.7582C36.6756 22.2327 36.3505 22.7919 36.1505 23.3997C35.9506 24.0075 35.8801 24.6505 35.9437 25.2872L37.7156 43.0414C37.7752 43.7388 38.0943 44.3886 38.6099 44.862C39.1255 45.3355 39.8 45.5982 40.5 45.5982C41.2 45.5982 41.8745 45.3355 42.3901 44.862C42.9057 44.3886 43.2248 43.7388 43.2844 43.0414L45.0562 25.2872C45.1199 24.6505 45.0494 24.0075 44.8495 23.3997C44.6495 22.7919 44.3244 22.2327 43.8952 21.7582C43.466 21.2836 42.9421 20.9043 42.3573 20.6445C41.7726 20.3848 41.1399 20.2504 40.5 20.25ZM40.5101 50.625C39.1675 50.625 37.8798 51.1584 36.9304 52.1078C35.981 53.0572 35.4476 54.3448 35.4476 55.6875C35.4476 57.0302 35.981 58.3178 36.9304 59.2672C37.8798 60.2166 39.1675 60.75 40.5101 60.75C41.8528 60.75 43.1404 60.2166 44.0899 59.2672C45.0393 58.3178 45.5726 57.0302 45.5726 55.6875C45.5726 54.3448 45.0393 53.0572 44.0899 52.1078C43.1404 51.1584 41.8528 50.625 40.5101 50.625Z" fill="#FFD633"/>
</svg>
