<svg width="17" height="16" viewBox="0 0 17 16" fill="none" xmlns="http://www.w3.org/2000/svg">
<path d="M8.16148 0C3.70247 0 0.106445 3.08878 0.106445 6.83861C0.106445 9.27263 1.60239 11.4039 3.84631 12.6209L3.08683 15.6665C3.07251 15.7121 3.07032 15.7612 3.08048 15.808C3.09064 15.8549 3.11275 15.898 3.14437 15.9321C3.19046 15.9757 3.24977 15.9998 3.31123 16C3.36218 15.9957 3.41052 15.974 3.4493 15.9383L6.71738 13.5723C7.19979 13.6437 7.68607 13.6808 8.17309 13.6834C12.6264 13.6834 16.2281 10.5947 16.2281 6.83861C16.2281 3.08261 12.6148 0 8.16148 0Z" fill="#392020"/>
</svg>
