<svg width="25" height="26" viewBox="0 0 25 26" fill="none" xmlns="http://www.w3.org/2000/svg">
<path d="M0.816406 6.23889C0.816406 5.64121 1.05383 5.06802 1.47645 4.6454C1.89907 4.22278 2.47227 3.98535 3.06994 3.98535H16.5912C17.1888 3.98535 17.762 4.22278 18.1846 4.6454C18.6073 5.06802 18.8447 5.64121 18.8447 6.23889V8.49242H20.3771C20.7147 8.49272 21.048 8.56889 21.3522 8.71529C21.6565 8.86169 21.9239 9.07459 22.1349 9.33825L24.3598 12.1176C24.68 12.5175 24.8543 13.0146 24.8541 13.5268V16.7554C24.8541 17.3531 24.6167 17.9263 24.1941 18.3489C23.7715 18.7715 23.1983 19.0089 22.6006 19.0089H21.8494C21.8494 19.8058 21.5328 20.5701 20.9693 21.1336C20.4059 21.6971 19.6416 22.0136 18.8447 22.0136C18.0478 22.0136 17.2835 21.6971 16.72 21.1336C16.1565 20.5701 15.84 19.8058 15.84 19.0089H8.32819C8.32906 19.4094 8.24984 19.8061 8.09521 20.1755C7.94058 20.545 7.71364 20.8798 7.42775 21.1603C7.14186 21.4407 6.80278 21.6612 6.43044 21.8088C6.05811 21.9563 5.66003 22.028 5.25962 22.0194C4.8592 22.0109 4.46453 21.9225 4.0988 21.7592C3.73307 21.596 3.40367 21.3613 3.12996 21.0689C2.85625 20.7765 2.64375 20.4323 2.50496 20.0567C2.36617 19.681 2.30388 19.2813 2.32177 18.8812C1.88165 18.7263 1.50046 18.4386 1.23082 18.0578C0.961182 17.6771 0.816381 17.222 0.816406 16.7554L0.816406 6.23889ZM2.76046 17.4405C3.03208 16.9958 3.41475 16.6294 3.87085 16.3773C4.32694 16.1253 4.84077 15.9963 5.36183 16.0029C5.88289 16.0096 6.39325 16.1517 6.84274 16.4154C7.29224 16.679 7.6654 17.0551 7.92556 17.5066H16.2426C16.5069 17.0503 16.886 16.6711 17.3423 16.4068V6.23889C17.3423 6.03966 17.2632 5.8486 17.1223 5.70772C16.9814 5.56685 16.7904 5.48771 16.5912 5.48771H3.06994C2.87072 5.48771 2.67965 5.56685 2.53878 5.70772C2.39791 5.8486 2.31876 6.03966 2.31876 6.23889V16.7554C2.31865 16.9 2.36026 17.0415 2.43861 17.163C2.51696 17.2846 2.62871 17.3809 2.76046 17.4405ZM18.8447 16.0042C19.3721 16.0042 19.8902 16.1431 20.347 16.4068C20.8038 16.6705 21.1831 17.0498 21.4468 17.5066H22.6006C22.7998 17.5066 22.9909 17.4274 23.1318 17.2866C23.2726 17.1457 23.3518 16.9546 23.3518 16.7554V13.5253C23.3515 13.3548 23.2932 13.1896 23.1865 13.0566L20.963 10.2772C20.8928 10.1892 20.8036 10.1182 20.7022 10.0693C20.6008 10.0204 20.4897 9.99494 20.3771 9.99478H18.8447V16.0042ZM5.32348 17.5066C4.92503 17.5066 4.5429 17.6648 4.26115 17.9466C3.9794 18.2283 3.82112 18.6105 3.82112 19.0089C3.82112 19.4074 3.9794 19.7895 4.26115 20.0712C4.5429 20.353 4.92503 20.5113 5.32348 20.5113C5.72193 20.5113 6.10406 20.353 6.38581 20.0712C6.66755 19.7895 6.82584 19.4074 6.82584 19.0089C6.82584 18.6105 6.66755 18.2283 6.38581 17.9466C6.10406 17.6648 5.72193 17.5066 5.32348 17.5066ZM18.8447 17.5066C18.4462 17.5066 18.0641 17.6648 17.7824 17.9466C17.5006 18.2283 17.3423 18.6105 17.3423 19.0089C17.3423 19.4074 17.5006 19.7895 17.7824 20.0712C18.0641 20.353 18.4462 20.5113 18.8447 20.5113C19.2431 20.5113 19.6253 20.353 19.907 20.0712C20.1888 19.7895 20.3471 19.4074 20.3471 19.0089C20.3471 18.6105 20.1888 18.2283 19.907 17.9466C19.6253 17.6648 19.2431 17.5066 18.8447 17.5066Z" fill="#808080"/>
</svg>
