<svg width="25" height="24" viewBox="0 0 25 24" fill="none" xmlns="http://www.w3.org/2000/svg">
<path d="M3.62108 0.117188C2.8332 0.117188 2.0776 0.43017 1.52049 0.987283C0.963373 1.5444 0.650391 2.3 0.650391 3.08788L0.650391 20.912C0.650391 21.6999 0.963373 22.4555 1.52049 23.0126C2.0776 23.5697 2.8332 23.8827 3.62108 23.8827H21.4452C22.2331 23.8827 22.9887 23.5697 23.5458 23.0126C24.1029 22.4555 24.4159 21.6999 24.4159 20.912V3.08788C24.4159 2.3 24.1029 1.5444 23.5458 0.987283C22.9887 0.43017 22.2331 0.117188 21.4452 0.117188L3.62108 0.117188ZM18.5191 7.49935C18.7254 7.70545 18.8427 7.98422 18.8457 8.27582C18.8488 8.56742 18.7374 8.84859 18.5354 9.05896L12.6059 16.4708C12.504 16.5806 12.381 16.6687 12.2443 16.7298C12.1076 16.791 11.9599 16.8239 11.8102 16.8267C11.6604 16.8295 11.5116 16.802 11.3727 16.746C11.2338 16.6899 11.1077 16.6065 11.0018 16.5005L7.07302 12.5703C6.96357 12.4683 6.87579 12.3453 6.8149 12.2087C6.75401 12.072 6.72127 11.9245 6.71863 11.775C6.71599 11.6254 6.74351 11.4768 6.79954 11.3381C6.85557 11.1994 6.93896 11.0734 7.04474 10.9676C7.15053 10.8618 7.27654 10.7784 7.41525 10.7224C7.55396 10.6663 7.70254 10.6388 7.85212 10.6415C8.0017 10.6441 8.14921 10.6768 8.28586 10.7377C8.42251 10.7986 8.5455 10.8864 8.64749 10.9959L11.7578 14.1047L16.9164 7.53203C17.0181 7.42207 17.1409 7.33375 17.2776 7.27235C17.4142 7.21094 17.5618 7.17772 17.7115 7.17467C17.8613 7.17162 18.0101 7.1988 18.1491 7.25459C18.2881 7.31038 18.4145 7.39362 18.5206 7.49935H18.5191Z" fill="#FFD633"/>
</svg>
