<svg width="20" height="20" viewBox="0 0 20 20" fill="none" xmlns="http://www.w3.org/2000/svg">
<path d="M13.6033 11.7832L10.1267 6.97856C10.1123 6.9586 10.0934 6.94234 10.0715 6.93112C10.0496 6.91991 10.0253 6.91406 10.0007 6.91406C9.97612 6.91406 9.95187 6.91991 9.92997 6.93112C9.90806 6.94234 9.88914 6.9586 9.87475 6.97856L6.39819 11.7832C6.32397 11.8868 6.39819 12.0313 6.52514 12.0313H7.44116C7.64038 12.0313 7.82983 11.9356 7.94702 11.7735L9.99975 8.93364L12.0544 11.7735C12.1716 11.9356 12.3591 12.0313 12.5603 12.0313H13.4763C13.6033 12.0313 13.6775 11.8868 13.6033 11.7832Z" fill="black"/>
<path d="M18.75 10C18.75 5.16797 14.832 1.25 10 1.25C5.16797 1.25 1.25 5.16797 1.25 10C1.25 14.832 5.16797 18.75 10 18.75C14.832 18.75 18.75 14.832 18.75 10ZM2.73438 10C2.73438 5.98828 5.98828 2.73438 10 2.73438C14.0117 2.73438 17.2656 5.98828 17.2656 10C17.2656 14.0117 14.0117 17.2656 10 17.2656C5.98828 17.2656 2.73438 14.0117 2.73438 10Z" fill="black"/>
</svg>
