<svg width="23" height="21" viewBox="0 0 23 21" fill="none" xmlns="http://www.w3.org/2000/svg">
<path d="M22.1084 10.3294L12.0522 0.28062C11.9798 0.208071 11.8938 0.150514 11.7992 0.111243C11.7045 0.0719718 11.603 0.0517578 11.5005 0.0517578C11.398 0.0517578 11.2965 0.0719718 11.2018 0.111243C11.1071 0.150514 11.0211 0.208071 10.9487 0.28062L0.892578 10.3294C0.599609 10.6224 0.433594 11.0204 0.433594 11.4354C0.433594 12.2972 1.13428 12.9979 1.99609 12.9979H3.05566V20.1683C3.05566 20.6004 3.40479 20.9496 3.83691 20.9496H9.93799V15.4808H12.6724V20.9496H19.1641C19.5962 20.9496 19.9453 20.6004 19.9453 20.1683V12.9979H21.0049C21.4199 12.9979 21.8179 12.8343 22.1108 12.5389C22.7187 11.9286 22.7187 10.9398 22.1084 10.3294Z" fill="#A8A8A8"/>
</svg>
