<svg width="25" height="25" viewBox="0 0 25 25" fill="none" xmlns="http://www.w3.org/2000/svg">
<path d="M23.1084 12.3294L13.0522 2.28062C12.9798 2.20807 12.8938 2.15051 12.7992 2.11124C12.7045 2.07197 12.603 2.05176 12.5005 2.05176C12.398 2.05176 12.2965 2.07197 12.2018 2.11124C12.1071 2.15051 12.0211 2.20807 11.9487 2.28062L1.89258 12.3294C1.59961 12.6224 1.43359 13.0204 1.43359 13.4354C1.43359 14.2972 2.13428 14.9979 2.99609 14.9979H4.05566V22.1683C4.05566 22.6004 4.40479 22.9496 4.83691 22.9496H10.938V17.4808H13.6724V22.9496H20.1641C20.5962 22.9496 20.9453 22.6004 20.9453 22.1683V14.9979H22.0049C22.4199 14.9979 22.8179 14.8343 23.1108 14.5389C23.7187 13.9286 23.7187 12.9398 23.1084 12.3294Z" fill="#3A3A3A"/>
</svg>
