<svg width="25" height="25" viewBox="0 0 25 25" fill="none" xmlns="http://www.w3.org/2000/svg">
<path d="M23.9345 8.85732L21.7797 6.70254C21.6058 6.53103 21.374 6.43089 21.13 6.42185C20.886 6.41281 20.6474 6.49554 20.4613 6.65371C20.1741 6.89821 19.8055 7.02588 19.4285 7.01141C19.0516 6.99694 18.6938 6.84139 18.4262 6.57559C18.1605 6.30795 18.005 5.9503 17.9906 5.57348C17.9761 5.19665 18.1037 4.82814 18.348 4.54092C18.5062 4.35486 18.5889 4.11629 18.5799 3.87225C18.5709 3.62821 18.4707 3.39641 18.2992 3.22256L16.1425 1.06533C15.9602 0.883419 15.7132 0.78125 15.4557 0.78125C15.1982 0.78125 14.9512 0.883419 14.7689 1.06533L11.3339 4.4999C11.1218 4.71274 10.9619 4.97178 10.8666 5.25674C10.8481 5.31153 10.8171 5.3613 10.7762 5.4022C10.7353 5.4431 10.6855 5.47403 10.6308 5.49258C10.3457 5.58785 10.0866 5.74797 9.87393 5.96035L1.06533 14.7689C0.883419 14.9512 0.78125 15.1982 0.78125 15.4557C0.78125 15.7132 0.883419 15.9602 1.06533 16.1425L3.22256 18.2973C3.39641 18.4688 3.62821 18.5689 3.87225 18.578C4.11629 18.587 4.35486 18.5043 4.54092 18.3461C4.82748 18.0996 5.19661 17.9705 5.57432 17.9847C5.95204 17.9989 6.31045 18.1553 6.57772 18.4226C6.84499 18.6898 7.00139 19.0483 7.01558 19.426C7.02976 19.8037 6.90068 20.1728 6.6542 20.4594C6.49602 20.6454 6.4133 20.884 6.42234 21.128C6.43138 21.3721 6.53152 21.6039 6.70303 21.7777L8.85781 23.9325C9.04008 24.1144 9.28707 24.2166 9.54458 24.2166C9.80209 24.2166 10.0491 24.1144 10.2313 23.9325L19.0399 15.1239C19.2522 14.9113 19.4123 14.6524 19.5077 14.3676C19.5262 14.3126 19.5571 14.2627 19.5981 14.2217C19.6391 14.1807 19.6891 14.1497 19.744 14.1313C20.0288 14.036 20.2877 13.876 20.5004 13.664L23.935 10.2289C24.1162 10.0467 24.2179 9.80005 24.2178 9.54302C24.2177 9.28598 24.1159 9.03944 23.9345 8.85732ZM12.7836 7.40957C12.711 7.48214 12.6249 7.5397 12.5301 7.57897C12.4353 7.61824 12.3337 7.63846 12.2311 7.63846C12.1285 7.63846 12.0269 7.61824 11.9321 7.57897C11.8373 7.5397 11.7512 7.48214 11.6786 7.40957L11.1166 6.84756C10.9737 6.70031 10.8944 6.50272 10.8959 6.29751C10.8975 6.09229 10.9797 5.89592 11.1249 5.75084C11.27 5.60576 11.4664 5.52361 11.6716 5.52216C11.8768 5.5207 12.0744 5.60006 12.2216 5.74307L12.7836 6.30459C12.8562 6.37714 12.9137 6.46327 12.953 6.55807C12.9923 6.65287 13.0125 6.75447 13.0125 6.85708C13.0125 6.95969 12.9923 7.0613 12.953 7.15609C12.9137 7.25089 12.8562 7.33702 12.7836 7.40957ZM14.932 9.55801C14.7855 9.70441 14.5869 9.78665 14.3798 9.78665C14.1727 9.78665 13.974 9.70441 13.8275 9.55801L13.2904 9.0209C13.2179 8.94835 13.1603 8.86221 13.1211 8.76741C13.0818 8.67262 13.0616 8.57102 13.0616 8.46841C13.0616 8.3658 13.0818 8.2642 13.1211 8.1694C13.1603 8.07461 13.2179 7.98847 13.2904 7.91592C13.437 7.76939 13.6357 7.68707 13.8429 7.68707C13.9455 7.68707 14.0471 7.70728 14.1419 7.74655C14.2367 7.78581 14.3229 7.84336 14.3954 7.91592L14.9325 8.45303C15.0053 8.52557 15.0631 8.61177 15.1026 8.70668C15.142 8.8016 15.1623 8.90336 15.1624 9.00615C15.1624 9.10893 15.1422 9.21072 15.1028 9.30567C15.0635 9.40062 15.0058 9.48687 14.933 9.55947L14.932 9.55801ZM17.0805 11.7064C17.0079 11.779 16.9218 11.8366 16.827 11.8758C16.7322 11.9151 16.6306 11.9353 16.528 11.9353C16.4254 11.9353 16.3238 11.9151 16.229 11.8758C16.1342 11.8366 16.048 11.779 15.9755 11.7064L15.4384 11.1693C15.2954 11.0221 15.2162 10.8245 15.2177 10.6193C15.2193 10.4141 15.3015 10.2177 15.4466 10.0726C15.5918 9.92753 15.7882 9.84539 15.9934 9.84394C16.1986 9.84248 16.3962 9.92183 16.5434 10.0648L17.0805 10.602C17.1535 10.6744 17.2115 10.7605 17.2511 10.8554C17.2908 10.9503 17.3113 11.0521 17.3116 11.1549C17.3118 11.2578 17.2917 11.3596 17.2525 11.4547C17.2132 11.5498 17.1556 11.6361 17.0829 11.7089L17.0805 11.7064ZM19.2499 13.8813C19.1774 13.9538 19.0912 14.0114 18.9964 14.0507C18.9016 14.0899 18.8 14.1101 18.6974 14.1101C18.5948 14.1101 18.4932 14.0899 18.3984 14.0507C18.3036 14.0114 18.2175 13.9538 18.1449 13.8813L17.5863 13.3197C17.5122 13.2474 17.4533 13.1611 17.4128 13.0657C17.3724 12.9704 17.3513 12.868 17.3509 12.7645C17.3504 12.6609 17.3705 12.5583 17.41 12.4626C17.4495 12.3669 17.5076 12.28 17.581 12.207C17.6544 12.1339 17.7416 12.0762 17.8375 12.0371C17.9334 11.9981 18.0361 11.9785 18.1396 11.9795C18.2432 11.9805 18.3455 12.0021 18.4406 12.043C18.5357 12.0838 18.6218 12.1432 18.6937 12.2177L19.2528 12.7787C19.3254 12.8513 19.3829 12.9374 19.4221 13.0323C19.4613 13.1271 19.4815 13.2287 19.4815 13.3313C19.4814 13.4339 19.4612 13.5355 19.4219 13.6303C19.3825 13.7251 19.3249 13.8112 19.2523 13.8837L19.2499 13.8813Z" fill="#A7A7A7"/>
</svg>
