<svg width="40" height="40" viewBox="0 0 40 40" fill="none" xmlns="http://www.w3.org/2000/svg">
<path d="M36.25 6.25H3.75C3.05859 6.25 2.5 6.80859 2.5 7.5V32.5C2.5 33.1914 3.05859 33.75 3.75 33.75H36.25C36.9414 33.75 37.5 33.1914 37.5 32.5V7.5C37.5 6.80859 36.9414 6.25 36.25 6.25ZM34.6875 30.9375H5.3125V9.0625H34.6875V30.9375ZM23.8398 18.5938H28.6602C28.7109 18.5938 28.75 18.4531 28.75 18.2812V16.4062C28.75 16.2344 28.7109 16.0938 28.6602 16.0938H23.8398C23.7891 16.0938 23.75 16.2344 23.75 16.4062V18.2812C23.75 18.4531 23.7891 18.5938 23.8398 18.5938ZM24.0273 24.2188H31.2812C31.4336 24.2188 31.5586 24.0781 31.5586 23.9062V22.0312C31.5586 21.8594 31.4336 21.7188 31.2812 21.7188H24.0273C23.875 21.7188 23.75 21.8594 23.75 22.0312V23.9062C23.75 24.0781 23.875 24.2188 24.0273 24.2188ZM8.75 26.2891H10.4648C10.6289 26.2891 10.7617 26.1602 10.7734 25.9961C10.9219 24.0234 12.5703 22.4609 14.5703 22.4609C16.5703 22.4609 18.2188 24.0234 18.3672 25.9961C18.3789 26.1602 18.5117 26.2891 18.6758 26.2891H20.3906C20.433 26.2891 20.475 26.2805 20.5139 26.2639C20.5529 26.2472 20.5881 26.2228 20.6173 26.1921C20.6465 26.1614 20.6692 26.1251 20.684 26.0853C20.6987 26.0456 20.7052 26.0033 20.7031 25.9609C20.5938 23.8789 19.4531 22.0664 17.7891 21.0352C18.5229 20.2285 18.9284 19.1765 18.9258 18.0859C18.9258 15.668 16.9766 13.7109 14.5742 13.7109C12.1719 13.7109 10.2227 15.668 10.2227 18.0859C10.2227 19.2227 10.6523 20.2539 11.3594 21.0352C10.5122 21.5601 9.80471 22.2823 9.29726 23.1401C8.78982 23.9978 8.49751 24.9657 8.44531 25.9609C8.42969 26.1406 8.57031 26.2891 8.75 26.2891ZM14.5703 16.0547C15.6836 16.0547 16.5898 16.9648 16.5898 18.0859C16.5898 19.207 15.6836 20.1172 14.5703 20.1172C13.457 20.1172 12.5508 19.207 12.5508 18.0859C12.5508 16.9648 13.457 16.0547 14.5703 16.0547Z" fill="black"/>
</svg>
