<svg width="80" height="24" viewBox="0 0 80 24" fill="none" xmlns="http://www.w3.org/2000/svg">
<rect width="80" height="24" rx="12" fill="#D9D9D9"/>
<path opacity="0.8" d="M25.375 7.92188C25.2812 7.03125 24.5625 6.5 23.4219 6.5C22.2344 6.5 21.5781 7.04688 21.5625 7.79688C21.5469 8.60938 22.4062 8.98438 23.375 9.20312L24.3906 9.45312C26.3281 9.89062 27.7812 10.875 27.7812 12.7656C27.7812 14.8438 26.1562 16.1562 23.4062 16.1562C20.6719 16.1562 18.9219 14.8906 18.8594 12.4688H21.1406C21.2188 13.6094 22.125 14.1875 23.375 14.1875C24.6094 14.1875 25.4062 13.6094 25.4062 12.7656C25.4062 12 24.7031 11.6406 23.4688 11.3281L22.2344 11.0312C20.3281 10.5625 19.1562 9.60938 19.1562 7.95312C19.1562 5.89062 20.9688 4.53125 23.4375 4.53125C25.9375 4.53125 27.5938 5.92188 27.625 7.92188H25.375ZM29.2656 16V7.51562H31.5781V16H29.2656ZM30.4219 6.40625C29.7188 6.40625 29.1562 5.875 29.1562 5.23438C29.1562 4.57812 29.7188 4.04688 30.4219 4.04688C31.1094 4.04688 31.6719 4.57812 31.6719 5.23438C31.6719 5.875 31.1094 6.40625 30.4219 6.40625ZM35.6875 4.6875V16H33.375V4.6875H35.6875ZM45.3594 7.51562L42.375 16H39.7812L36.8125 7.51562H39.25L41.0312 13.6094H41.125L42.9062 7.51562H45.3594ZM50.0469 16.1719C47.4531 16.1719 45.8594 14.4844 45.8594 11.7969C45.8594 9.17188 47.4688 7.40625 49.9531 7.40625C52.1875 7.40625 53.9375 8.8125 53.9375 11.7031V12.3594H48.1406C48.1406 13.6406 48.9062 14.4375 50.0938 14.4375C50.875 14.4375 51.4375 14.0938 51.6719 13.5781H53.875C53.5469 15.1406 52.1406 16.1719 50.0469 16.1719ZM48.1406 10.9062H51.75C51.75 9.875 51.0312 9.14062 50 9.14062C48.9375 9.14062 48.1797 9.92969 48.1406 10.9062ZM55.3906 16V7.51562H57.625V8.98438H57.7188C58.0312 7.9375 58.8125 7.39062 59.7656 7.39062C60 7.39062 60.2969 7.42188 60.5 7.46875V9.53125C60.2812 9.46875 59.8438 9.40625 59.5156 9.40625C58.4688 9.40625 57.7031 10.1406 57.7031 11.1719V16H55.3906Z" fill="black"/>
</svg>
