<svg width="28" height="28" viewBox="0 0 28 28" fill="none" xmlns="http://www.w3.org/2000/svg">
<path d="M0 4.375C0 4.14294 0.0921872 3.92038 0.256282 3.75628C0.420376 3.59219 0.642936 3.5 0.875 3.5H3.5C3.69518 3.50005 3.88474 3.56536 4.03853 3.68554C4.19232 3.80572 4.30152 3.97387 4.34875 4.16325L5.0575 7H25.375C25.5079 7.00004 25.6391 7.03035 25.7585 7.08864C25.878 7.14693 25.9826 7.23167 26.0644 7.33642C26.1462 7.44117 26.203 7.56318 26.2307 7.69319C26.2583 7.8232 26.2559 7.95779 26.2237 8.08675L23.5987 18.5868C23.5515 18.7761 23.4423 18.9443 23.2885 19.0645C23.1347 19.1846 22.9452 19.2499 22.75 19.25H7C6.80482 19.2499 6.61526 19.1846 6.46147 19.0645C6.30768 18.9443 6.19848 18.7761 6.15125 18.5868L2.8175 5.25H0.875C0.642936 5.25 0.420376 5.15781 0.256282 4.99372C0.0921872 4.82962 0 4.60706 0 4.375ZM5.495 8.75L6.37 12.25H8.75V8.75H5.495ZM10.5 8.75V12.25H14V8.75H10.5ZM15.75 8.75V12.25H19.25V8.75H15.75ZM21 8.75V12.25H23.38L24.255 8.75H21ZM22.9425 14H21V17.5H22.0675L22.9425 14ZM19.25 14H15.75V17.5H19.25V14ZM14 14H10.5V17.5H14V14ZM8.75 14H6.8075L7.6825 17.5H8.75V14ZM8.75 22.75C8.28587 22.75 7.84075 22.9344 7.51256 23.2626C7.18437 23.5908 7 24.0359 7 24.5C7 24.9641 7.18437 25.4092 7.51256 25.7374C7.84075 26.0656 8.28587 26.25 8.75 26.25C9.21413 26.25 9.65925 26.0656 9.98744 25.7374C10.3156 25.4092 10.5 24.9641 10.5 24.5C10.5 24.0359 10.3156 23.5908 9.98744 23.2626C9.65925 22.9344 9.21413 22.75 8.75 22.75ZM5.25 24.5C5.25 23.5717 5.61875 22.6815 6.27513 22.0251C6.9315 21.3687 7.82174 21 8.75 21C9.67826 21 10.5685 21.3687 11.2249 22.0251C11.8813 22.6815 12.25 23.5717 12.25 24.5C12.25 25.4283 11.8813 26.3185 11.2249 26.9749C10.5685 27.6313 9.67826 28 8.75 28C7.82174 28 6.9315 27.6313 6.27513 26.9749C5.61875 26.3185 5.25 25.4283 5.25 24.5ZM21 22.75C20.5359 22.75 20.0908 22.9344 19.7626 23.2626C19.4344 23.5908 19.25 24.0359 19.25 24.5C19.25 24.9641 19.4344 25.4092 19.7626 25.7374C20.0908 26.0656 20.5359 26.25 21 26.25C21.4641 26.25 21.9092 26.0656 22.2374 25.7374C22.5656 25.4092 22.75 24.9641 22.75 24.5C22.75 24.0359 22.5656 23.5908 22.2374 23.2626C21.9092 22.9344 21.4641 22.75 21 22.75ZM17.5 24.5C17.5 23.5717 17.8687 22.6815 18.5251 22.0251C19.1815 21.3687 20.0717 21 21 21C21.9283 21 22.8185 21.3687 23.4749 22.0251C24.1312 22.6815 24.5 23.5717 24.5 24.5C24.5 25.4283 24.1312 26.3185 23.4749 26.9749C22.8185 27.6313 21.9283 28 21 28C20.0717 28 19.1815 27.6313 18.5251 26.9749C17.8687 26.3185 17.5 25.4283 17.5 24.5Z" fill="black"/>
</svg>
