<svg width="28" height="28" viewBox="0 0 28 28" fill="none" xmlns="http://www.w3.org/2000/svg">
<path d="M8.13011 8.13011C8.21139 8.04862 8.30795 7.98397 8.41425 7.93986C8.52056 7.89575 8.63452 7.87305 8.74961 7.87305C8.8647 7.87305 8.97867 7.89575 9.08497 7.93986C9.19127 7.98397 9.28783 8.04862 9.36911 8.13011L13.9996 12.7624L18.6301 8.13011C18.7115 8.04876 18.808 7.98422 18.9143 7.94019C19.0206 7.89617 19.1346 7.8735 19.2496 7.8735C19.3647 7.8735 19.4786 7.89617 19.5849 7.94019C19.6912 7.98422 19.7878 8.04876 19.8691 8.13011C19.9505 8.21146 20.015 8.30805 20.059 8.41434C20.1031 8.52063 20.1257 8.63456 20.1257 8.74961C20.1257 8.86466 20.1031 8.97859 20.059 9.08488C20.015 9.19118 19.9505 9.28776 19.8691 9.36911L15.2369 13.9996L19.8691 18.6301C19.9505 18.7115 20.015 18.808 20.059 18.9143C20.1031 19.0206 20.1257 19.1346 20.1257 19.2496C20.1257 19.3647 20.1031 19.4786 20.059 19.5849C20.015 19.6912 19.9505 19.7878 19.8691 19.8691C19.7878 19.9505 19.6912 20.015 19.5849 20.059C19.4786 20.1031 19.3647 20.1257 19.2496 20.1257C19.1346 20.1257 19.0206 20.1031 18.9143 20.059C18.808 20.015 18.7115 19.9505 18.6301 19.8691L13.9996 15.2369L9.36911 19.8691C9.28776 19.9505 9.19118 20.015 9.08488 20.059C8.97859 20.1031 8.86466 20.1257 8.74961 20.1257C8.63456 20.1257 8.52063 20.1031 8.41434 20.059C8.30805 20.015 8.21146 19.9505 8.13011 19.8691C8.04876 19.7878 7.98422 19.6912 7.94019 19.5849C7.89617 19.4786 7.8735 19.3647 7.8735 19.2496C7.8735 19.1346 7.89617 19.0206 7.94019 18.9143C7.98422 18.808 8.04876 18.7115 8.13011 18.6301L12.7624 13.9996L8.13011 9.36911C8.04862 9.28783 7.98397 9.19127 7.93986 9.08497C7.89575 8.97867 7.87305 8.8647 7.87305 8.74961C7.87305 8.63452 7.89575 8.52056 7.93986 8.41425C7.98397 8.30795 8.04862 8.21139 8.13011 8.13011Z" fill="black"/>
</svg>
