<svg width="24" height="23" viewBox="0 0 24 23" fill="none" xmlns="http://www.w3.org/2000/svg">
<path d="M23.9279 21.3468L16.1369 13.8804C17.3459 12.3826 17.9999 10.5512 17.9999 8.62496C17.9999 6.31922 17.0609 4.15723 15.3629 2.52711C13.6649 0.896996 11.403 0 8.99996 0C6.59697 0 4.33498 0.899871 2.63699 2.52711C0.935996 4.15436 0 6.31922 0 8.62496C0 10.9278 0.938996 13.0956 2.63699 14.7228C4.33498 16.3529 6.59397 17.2499 8.99996 17.2499C11.01 17.2499 12.9179 16.6232 14.4809 15.4674L22.2719 22.9309C22.2947 22.9528 22.3219 22.9702 22.3517 22.982C22.3816 22.9939 22.4136 23 22.4459 23C22.4782 23 22.5102 22.9939 22.5401 22.982C22.5699 22.9702 22.5971 22.9528 22.6199 22.9309L23.9279 21.6803C23.9508 21.6584 23.9689 21.6324 23.9813 21.6038C23.9936 21.5752 24 21.5445 24 21.5135C24 21.4826 23.9936 21.4519 23.9813 21.4233C23.9689 21.3947 23.9508 21.3687 23.9279 21.3468ZM13.7519 13.1789C12.4799 14.3951 10.794 15.0649 8.99996 15.0649C7.20597 15.0649 5.51998 14.3951 4.24798 13.1789C2.97899 11.9599 2.27999 10.3442 2.27999 8.62496C2.27999 6.90572 2.97899 5.2871 4.24798 4.07098C5.51998 2.85486 7.20597 2.18499 8.99996 2.18499C10.794 2.18499 12.4829 2.85199 13.7519 4.07098C15.0209 5.28998 15.7199 6.90572 15.7199 8.62496C15.7199 10.3442 15.0209 11.9628 13.7519 13.1789Z" fill="black"/>
</svg>
