<svg width="19" height="19" viewBox="0 0 19 19" fill="none" xmlns="http://www.w3.org/2000/svg">
<path d="M9.5 17.8125C7.29539 17.8125 5.18107 16.9367 3.62217 15.3778C2.06328 13.8189 1.1875 11.7046 1.1875 9.5C1.1875 7.29539 2.06328 5.18107 3.62217 3.62217C5.18107 2.06328 7.29539 1.1875 9.5 1.1875C11.7046 1.1875 13.8189 2.06328 15.3778 3.62217C16.9367 5.18107 17.8125 7.29539 17.8125 9.5C17.8125 11.7046 16.9367 13.8189 15.3778 15.3778C13.8189 16.9367 11.7046 17.8125 9.5 17.8125ZM9.5 19C12.0196 19 14.4359 17.9991 16.2175 16.2175C17.9991 14.4359 19 12.0196 19 9.5C19 6.98044 17.9991 4.56408 16.2175 2.78249C14.4359 1.00089 12.0196 0 9.5 0C6.98044 0 4.56408 1.00089 2.78249 2.78249C1.00089 4.56408 0 6.98044 0 9.5C0 12.0196 1.00089 14.4359 2.78249 16.2175C4.56408 17.9991 6.98044 19 9.5 19Z" fill="black"/>
<path d="M13.0267 5.90166C13.0182 5.90986 13.0103 5.91858 13.0029 5.92778L8.87876 11.1825L6.39332 8.69585C6.22449 8.53853 6.00118 8.45288 5.77045 8.45695C5.53972 8.46102 5.31957 8.55449 5.1564 8.71767C4.99322 8.88085 4.89975 9.10099 4.89568 9.33173C4.89161 9.56246 4.97725 9.78576 5.13457 9.9546L8.2767 13.0979C8.36134 13.1824 8.46214 13.249 8.57308 13.2937C8.68401 13.3384 8.80282 13.3603 8.92239 13.358C9.04197 13.3558 9.15988 13.3295 9.26909 13.2808C9.37829 13.232 9.47655 13.1617 9.55801 13.0742L14.2985 7.14853C14.4599 6.97911 14.5482 6.75297 14.5442 6.519C14.5402 6.28503 14.4443 6.06203 14.2772 5.89821C14.1101 5.73439 13.8852 5.64291 13.6512 5.64356C13.4172 5.6442 13.1929 5.73692 13.0267 5.90166Z" fill="black"/>
</svg>
