<svg width="40" height="40" viewBox="0 0 40 40" fill="none" xmlns="http://www.w3.org/2000/svg">
<g opacity="0.4">
<path fill-rule="evenodd" clip-rule="evenodd" d="M13.745 7.51584C14.3839 6.77105 15.315 6.25 16.4062 6.25H23.5938C24.685 6.25 25.6161 6.77105 26.255 7.51584C26.2943 7.56163 26.3302 7.61021 26.3625 7.6612L28.3871 10.8601C28.642 11.1304 28.934 11.25 29.1406 11.25H33.75C34.7446 11.25 35.6984 11.6451 36.4016 12.3483C37.1049 13.0516 37.5 14.0054 37.5 15V30C37.5 30.9946 37.1049 31.9484 36.4016 32.6516C35.6984 33.3549 34.7446 33.75 33.75 33.75H6.25C5.25544 33.75 4.30161 33.3549 3.59835 32.6516C2.89509 31.9484 2.5 30.9946 2.5 30V15C2.5 14.0054 2.89509 13.0516 3.59835 12.3483C4.30161 11.6451 5.25544 11.25 6.25 11.25H10.9375C11.1019 11.25 11.3312 11.1684 11.611 10.8631L13.6375 7.6612C13.6698 7.61021 13.7057 7.56163 13.745 7.51584ZM15.6942 9.08633L13.6703 12.2841C13.6382 12.3348 13.6025 12.3832 13.5634 12.4288C12.9911 13.097 12.1096 13.75 10.9375 13.75H6.25C5.91848 13.75 5.60054 13.8817 5.36612 14.1161C5.1317 14.3505 5 14.6685 5 15V30C5 30.3315 5.1317 30.6495 5.36612 30.8839C5.60054 31.1183 5.91848 31.25 6.25 31.25H33.75C34.0815 31.25 34.3995 31.1183 34.6339 30.8839C34.8683 30.6495 35 30.3315 35 30V15C35 14.6685 34.8683 14.3505 34.6339 14.1161C34.3995 13.8817 34.0815 13.75 33.75 13.75H29.1406C28.0098 13.75 27.0468 13.1412 26.4366 12.4288C26.3975 12.3832 26.3618 12.3348 26.3297 12.2841L24.3058 9.08633C24.0811 8.85033 23.831 8.75 23.5938 8.75H16.4062C16.169 8.75 15.9189 8.85033 15.6942 9.08633Z" fill="black"/>
<path fill-rule="evenodd" clip-rule="evenodd" d="M20 16.25C17.2386 16.25 15 18.4886 15 21.25C15 24.0114 17.2386 26.25 20 26.25C22.7614 26.25 25 24.0114 25 21.25C25 18.4886 22.7614 16.25 20 16.25ZM12.5 21.25C12.5 17.1079 15.8579 13.75 20 13.75C24.1421 13.75 27.5 17.1079 27.5 21.25C27.5 25.3921 24.1421 28.75 20 28.75C15.8579 28.75 12.5 25.3921 12.5 21.25Z" fill="black"/>
<path fill-rule="evenodd" clip-rule="evenodd" d="M6.5625 10.625C6.5625 9.93464 7.12214 9.375 7.8125 9.375H9.6875C10.3779 9.375 10.9375 9.93464 10.9375 10.625V12.3437C10.9375 13.0341 10.3779 13.5937 9.6875 13.5937C9.31416 13.5937 8.97905 13.4301 8.75 13.1706C8.52096 13.4301 8.18584 13.5937 7.8125 13.5937C7.12214 13.5937 6.5625 13.0341 6.5625 12.3437V10.625Z" fill="black"/>
</g>
</svg>
