<svg width="20" height="20" viewBox="0 0 20 20" fill="none" xmlns="http://www.w3.org/2000/svg">
<path d="M18.125 3.75C18.2908 3.75 18.4497 3.81585 18.5669 3.93306C18.6842 4.05027 18.75 4.20924 18.75 4.375V15.625C18.75 15.7908 18.6842 15.9497 18.5669 16.0669C18.4497 16.1842 18.2908 16.25 18.125 16.25H1.875C1.70924 16.25 1.55027 16.1842 1.43306 16.0669C1.31585 15.9497 1.25 15.7908 1.25 15.625V4.375C1.25 4.20924 1.31585 4.05027 1.43306 3.93306C1.55027 3.81585 1.70924 3.75 1.875 3.75H18.125ZM1.875 2.5C1.37772 2.5 0.900805 2.69754 0.549175 3.04917C0.197544 3.40081 0 3.87772 0 4.375L0 15.625C0 16.1223 0.197544 16.5992 0.549175 16.9508C0.900805 17.3025 1.37772 17.5 1.875 17.5H18.125C18.6223 17.5 19.0992 17.3025 19.4508 16.9508C19.8025 16.5992 20 16.1223 20 15.625V4.375C20 3.87772 19.8025 3.40081 19.4508 3.04917C19.0992 2.69754 18.6223 2.5 18.125 2.5H1.875Z" fill="black"/>
<path d="M8.7503 6.87514C8.7503 6.70938 8.81615 6.55041 8.93336 6.4332C9.05057 6.31599 9.20954 6.25014 9.3753 6.25014H15.6253C15.7911 6.25014 15.95 6.31599 16.0672 6.4332C16.1845 6.55041 16.2503 6.70938 16.2503 6.87514C16.2503 7.0409 16.1845 7.19987 16.0672 7.31708C15.95 7.43429 15.7911 7.50014 15.6253 7.50014H9.3753C9.20954 7.50014 9.05057 7.43429 8.93336 7.31708C8.81615 7.19987 8.7503 7.0409 8.7503 6.87514ZM6.8803 5.80764C6.93851 5.8657 6.98468 5.93467 7.01619 6.0106C7.0477 6.08653 7.06392 6.16793 7.06392 6.25014C7.06392 6.33235 7.0477 6.41375 7.01619 6.48968C6.98468 6.56561 6.93851 6.63458 6.8803 6.69264L5.0053 8.56764C4.94724 8.62584 4.87827 8.67202 4.80234 8.70353C4.72641 8.73504 4.64501 8.75126 4.5628 8.75126C4.48059 8.75126 4.39919 8.73504 4.32326 8.70353C4.24733 8.67202 4.17836 8.62584 4.1203 8.56764L3.4953 7.94264C3.43719 7.88453 3.3911 7.81554 3.35965 7.73962C3.3282 7.6637 3.31201 7.58232 3.31201 7.50014C3.31201 7.33417 3.37794 7.175 3.4953 7.05764C3.61266 6.94028 3.77183 6.87435 3.9378 6.87435C4.10377 6.87435 4.26294 6.94028 4.3803 7.05764L4.5628 7.24139L5.9953 5.80764C6.05336 5.74944 6.12233 5.70326 6.19826 5.67175C6.27419 5.64024 6.35559 5.62402 6.4378 5.62402C6.52001 5.62402 6.60141 5.64024 6.67734 5.67175C6.75327 5.70326 6.82224 5.74944 6.8803 5.80764ZM8.7503 11.8751C8.7503 11.7094 8.81615 11.5504 8.93336 11.4332C9.05057 11.316 9.20954 11.2501 9.3753 11.2501H15.6253C15.7911 11.2501 15.95 11.316 16.0672 11.4332C16.1845 11.5504 16.2503 11.7094 16.2503 11.8751C16.2503 12.0409 16.1845 12.1999 16.0672 12.3171C15.95 12.4343 15.7911 12.5001 15.6253 12.5001H9.3753C9.20954 12.5001 9.05057 12.4343 8.93336 12.3171C8.81615 12.1999 8.7503 12.0409 8.7503 11.8751ZM6.8803 10.8076C6.93851 10.8657 6.98468 10.9347 7.01619 11.0106C7.0477 11.0865 7.06392 11.1679 7.06392 11.2501C7.06392 11.3323 7.0477 11.4138 7.01619 11.4897C6.98468 11.5656 6.93851 11.6346 6.8803 11.6926L5.0053 13.5676C4.94724 13.6258 4.87827 13.672 4.80234 13.7035C4.72641 13.735 4.64501 13.7513 4.5628 13.7513C4.48059 13.7513 4.39919 13.735 4.32326 13.7035C4.24733 13.672 4.17836 13.6258 4.1203 13.5676L3.4953 12.9426C3.43719 12.8845 3.3911 12.8155 3.35965 12.7396C3.3282 12.6637 3.31201 12.5823 3.31201 12.5001C3.31201 12.418 3.3282 12.3366 3.35965 12.2607C3.3911 12.1847 3.43719 12.1157 3.4953 12.0576C3.55341 11.9995 3.6224 11.9534 3.69832 11.922C3.77425 11.8905 3.85562 11.8744 3.9378 11.8744C4.01998 11.8744 4.10136 11.8905 4.17728 11.922C4.25321 11.9534 4.32219 11.9995 4.3803 12.0576L4.5628 12.2414L5.9953 10.8076C6.05336 10.7494 6.12233 10.7033 6.19826 10.6717C6.27419 10.6402 6.35559 10.624 6.4378 10.624C6.52001 10.624 6.60141 10.6402 6.67734 10.6717C6.75327 10.7033 6.82224 10.7494 6.8803 10.8076Z" fill="black"/>
</svg>
