<svg width="20" height="20" viewBox="0 0 20 20" fill="none" xmlns="http://www.w3.org/2000/svg">
<path fill-rule="evenodd" clip-rule="evenodd" d="M7.34829 1.72335C8.05155 1.02009 9.00538 0.625 9.99994 0.625C10.9945 0.625 11.9483 1.02009 12.6516 1.72335C13.3549 2.42661 13.7499 3.38044 13.7499 4.375C13.7499 4.72018 13.4701 5 13.1249 5C12.7798 5 12.4999 4.72018 12.4999 4.375C12.4999 3.71196 12.2365 3.07607 11.7677 2.60723C11.2989 2.13839 10.663 1.875 9.99994 1.875C9.3369 1.875 8.70101 2.13839 8.23217 2.60723C7.76333 3.07607 7.49994 3.71196 7.49994 4.375V8.125C7.49994 8.47018 7.22012 8.75 6.87494 8.75C6.52976 8.75 6.24994 8.47018 6.24994 8.125V4.375C6.24994 3.38044 6.64503 2.42661 7.34829 1.72335Z" fill="black"/>
<path fill-rule="evenodd" clip-rule="evenodd" d="M5.62509 8.75C4.93474 8.75 4.37509 9.30964 4.37509 10V16.875C4.37509 17.5654 4.93474 18.125 5.62509 18.125H14.3751C15.0654 18.125 15.6251 17.5654 15.6251 16.875V10C15.6251 9.30964 15.0654 8.75 14.3751 8.75H5.62509ZM3.12509 10C3.12509 8.61929 4.24438 7.5 5.62509 7.5H14.3751C15.7558 7.5 16.8751 8.61929 16.8751 10V16.875C16.8751 18.2557 15.7558 19.375 14.3751 19.375H5.62509C4.24438 19.375 3.12509 18.2557 3.12509 16.875V10Z" fill="black"/>
</svg>
