<svg width="20" height="20" viewBox="0 0 20 20" fill="none" xmlns="http://www.w3.org/2000/svg">
<path fill-rule="evenodd" clip-rule="evenodd" d="M7.34835 1.72335C8.05161 1.02009 9.00544 0.625 10 0.625C10.9946 0.625 11.9484 1.02009 12.6517 1.72335C13.3549 2.42661 13.75 3.38044 13.75 4.375C13.75 4.72018 13.4702 5 13.125 5C12.7798 5 12.5 4.72018 12.5 4.375C12.5 3.71196 12.2366 3.07607 11.7678 2.60723C11.2989 2.13839 10.663 1.875 10 1.875C9.33696 1.875 8.70107 2.13839 8.23223 2.60723C7.76339 3.07607 7.5 3.71196 7.5 4.375V8.125C7.5 8.47018 7.22018 8.75 6.875 8.75C6.52982 8.75 6.25 8.47018 6.25 8.125V4.375C6.25 3.38044 6.64509 2.42661 7.34835 1.72335Z" fill="black"/>
<path fill-rule="evenodd" clip-rule="evenodd" d="M5.625 8.75C4.93464 8.75 4.375 9.30964 4.375 10V16.875C4.375 17.5654 4.93464 18.125 5.625 18.125H14.375C15.0654 18.125 15.625 17.5654 15.625 16.875V10C15.625 9.30964 15.0654 8.75 14.375 8.75H5.625ZM3.125 10C3.125 8.61929 4.24429 7.5 5.625 7.5H14.375C15.7557 7.5 16.875 8.61929 16.875 10V16.875C16.875 18.2557 15.7557 19.375 14.375 19.375H5.625C4.24429 19.375 3.125 18.2557 3.125 16.875V10Z" fill="black"/>
</svg>
