<svg width="20" height="20" viewBox="0 0 20 20" fill="none" xmlns="http://www.w3.org/2000/svg">
<path d="M3.74997 5.625C3.74997 5.45924 3.81582 5.30027 3.93303 5.18306C4.05024 5.06585 4.20921 5 4.37497 5H11.875C12.0407 5 12.1997 5.06585 12.3169 5.18306C12.4341 5.30027 12.5 5.45924 12.5 5.625C12.5 5.79076 12.4341 5.94973 12.3169 6.06694C12.1997 6.18415 12.0407 6.25 11.875 6.25H4.37497C4.20921 6.25 4.05024 6.18415 3.93303 6.06694C3.81582 5.94973 3.74997 5.79076 3.74997 5.625ZM3.74997 8.125C3.74997 7.95924 3.81582 7.80027 3.93303 7.68306C4.05024 7.56585 4.20921 7.5 4.37497 7.5H11.875C12.0407 7.5 12.1997 7.56585 12.3169 7.68306C12.4341 7.80027 12.5 7.95924 12.5 8.125C12.5 8.29076 12.4341 8.44973 12.3169 8.56694C12.1997 8.68415 12.0407 8.75 11.875 8.75H4.37497C4.20921 8.75 4.05024 8.68415 3.93303 8.56694C3.81582 8.44973 3.74997 8.29076 3.74997 8.125ZM3.74997 10.625C3.74997 10.4592 3.81582 10.3003 3.93303 10.1831C4.05024 10.0658 4.20921 10 4.37497 10H11.875C12.0407 10 12.1997 10.0658 12.3169 10.1831C12.4341 10.3003 12.5 10.4592 12.5 10.625C12.5 10.7908 12.4341 10.9497 12.3169 11.0669C12.1997 11.1842 12.0407 11.25 11.875 11.25H4.37497C4.20921 11.25 4.05024 11.1842 3.93303 11.0669C3.81582 10.9497 3.74997 10.7908 3.74997 10.625ZM3.74997 13.125C3.74997 12.9592 3.81582 12.8003 3.93303 12.6831C4.05024 12.5658 4.20921 12.5 4.37497 12.5H11.875C12.0407 12.5 12.1997 12.5658 12.3169 12.6831C12.4341 12.8003 12.5 12.9592 12.5 13.125C12.5 13.2908 12.4341 13.4497 12.3169 13.5669C12.1997 13.6842 12.0407 13.75 11.875 13.75H4.37497C4.20921 13.75 4.05024 13.6842 3.93303 13.5669C3.81582 13.4497 3.74997 13.2908 3.74997 13.125ZM3.74997 15.625C3.74997 15.4592 3.81582 15.3003 3.93303 15.1831C4.05024 15.0658 4.20921 15 4.37497 15H11.875C12.0407 15 12.1997 15.0658 12.3169 15.1831C12.4341 15.3003 12.5 15.4592 12.5 15.625C12.5 15.7908 12.4341 15.9497 12.3169 16.0669C12.1997 16.1842 12.0407 16.25 11.875 16.25H4.37497C4.20921 16.25 4.05024 16.1842 3.93303 16.0669C3.81582 15.9497 3.74997 15.7908 3.74997 15.625ZM14.375 5C14.2092 5 14.0502 5.06585 13.933 5.18306C13.8158 5.30027 13.75 5.45924 13.75 5.625C13.75 5.79076 13.8158 5.94973 13.933 6.06694C14.0502 6.18415 14.2092 6.25 14.375 6.25H15.625C15.7907 6.25 15.9497 6.18415 16.0669 6.06694C16.1841 5.94973 16.25 5.79076 16.25 5.625C16.25 5.45924 16.1841 5.30027 16.0669 5.18306C15.9497 5.06585 15.7907 5 15.625 5H14.375ZM14.375 7.5C14.2092 7.5 14.0502 7.56585 13.933 7.68306C13.8158 7.80027 13.75 7.95924 13.75 8.125C13.75 8.29076 13.8158 8.44973 13.933 8.56694C14.0502 8.68415 14.2092 8.75 14.375 8.75H15.625C15.7907 8.75 15.9497 8.68415 16.0669 8.56694C16.1841 8.44973 16.25 8.29076 16.25 8.125C16.25 7.95924 16.1841 7.80027 16.0669 7.68306C15.9497 7.56585 15.7907 7.5 15.625 7.5H14.375ZM14.375 10C14.2092 10 14.0502 10.0658 13.933 10.1831C13.8158 10.3003 13.75 10.4592 13.75 10.625C13.75 10.7908 13.8158 10.9497 13.933 11.0669C14.0502 11.1842 14.2092 11.25 14.375 11.25H15.625C15.7907 11.25 15.9497 11.1842 16.0669 11.0669C16.1841 10.9497 16.25 10.7908 16.25 10.625C16.25 10.4592 16.1841 10.3003 16.0669 10.1831C15.9497 10.0658 15.7907 10 15.625 10H14.375ZM14.375 12.5C14.2092 12.5 14.0502 12.5658 13.933 12.6831C13.8158 12.8003 13.75 12.9592 13.75 13.125C13.75 13.2908 13.8158 13.4497 13.933 13.5669C14.0502 13.6842 14.2092 13.75 14.375 13.75H15.625C15.7907 13.75 15.9497 13.6842 16.0669 13.5669C16.1841 13.4497 16.25 13.2908 16.25 13.125C16.25 12.9592 16.1841 12.8003 16.0669 12.6831C15.9497 12.5658 15.7907 12.5 15.625 12.5H14.375ZM14.375 15C14.2092 15 14.0502 15.0658 13.933 15.1831C13.8158 15.3003 13.75 15.4592 13.75 15.625C13.75 15.7908 13.8158 15.9497 13.933 16.0669C14.0502 16.1842 14.2092 16.25 14.375 16.25H15.625C15.7907 16.25 15.9497 16.1842 16.0669 16.0669C16.1841 15.9497 16.25 15.7908 16.25 15.625C16.25 15.4592 16.1841 15.3003 16.0669 15.1831C15.9497 15.0658 15.7907 15 15.625 15H14.375Z" fill="black"/>
<path d="M2.94253 0.807641C2.8725 0.737556 2.78681 0.685125 2.69253 0.65467C2.59826 0.624216 2.49809 0.616611 2.40029 0.632483C2.3025 0.648355 2.20987 0.687249 2.13007 0.745957C2.05026 0.804665 1.98555 0.881506 1.94128 0.970141L1.31628 2.22014C1.27272 2.30705 1.25004 2.40293 1.25003 2.50014V18.7501H0.625031C0.45927 18.7501 0.300299 18.816 0.183089 18.9332C0.0658786 19.0504 3.05176e-05 19.2094 3.05176e-05 19.3751C3.05176e-05 19.5409 0.0658786 19.6999 0.183089 19.8171C0.300299 19.9343 0.45927 20.0001 0.625031 20.0001H19.375C19.5408 20.0001 19.6998 19.9343 19.817 19.8171C19.9342 19.6999 20 19.5409 20 19.3751C20 19.2094 19.9342 19.0504 19.817 18.9332C19.6998 18.816 19.5408 18.7501 19.375 18.7501H18.75V2.50014C18.75 2.40293 18.7273 2.30705 18.6838 2.22014L18.0588 0.970141C18.0145 0.881731 17.9498 0.805102 17.8701 0.74655C17.7904 0.687999 17.6979 0.649198 17.6003 0.633335C17.5027 0.617472 17.4027 0.625001 17.3086 0.655303C17.2144 0.685605 17.1288 0.737814 17.0588 0.807641L16.25 1.61639L15.4425 0.807641C15.3845 0.749437 15.3155 0.703258 15.2396 0.67175C15.1636 0.640242 15.0822 0.624023 15 0.624023C14.9178 0.624023 14.8364 0.640242 14.7605 0.67175C14.6846 0.703258 14.6156 0.749437 14.5575 0.807641L13.75 1.61639L12.9425 0.807641C12.8845 0.749437 12.8155 0.703258 12.7396 0.67175C12.6636 0.640242 12.5822 0.624023 12.5 0.624023C12.4178 0.624023 12.3364 0.640242 12.2605 0.67175C12.1846 0.703258 12.1156 0.749437 12.0575 0.807641L11.25 1.61639L10.4425 0.807641C10.3845 0.749437 10.3155 0.703258 10.2396 0.67175C10.1636 0.640242 10.0822 0.624023 10 0.624023C9.91782 0.624023 9.83642 0.640242 9.76049 0.67175C9.68456 0.703258 9.61559 0.749437 9.55753 0.807641L8.75003 1.61639L7.94253 0.807641C7.88447 0.749437 7.8155 0.703258 7.73957 0.67175C7.66364 0.640242 7.58224 0.624023 7.50003 0.624023C7.41782 0.624023 7.33642 0.640242 7.26049 0.67175C7.18456 0.703258 7.11559 0.749437 7.05753 0.807641L6.25003 1.61639L5.44253 0.807641C5.38447 0.749437 5.3155 0.703258 5.23957 0.67175C5.16364 0.640242 5.08224 0.624023 5.00003 0.624023C4.91782 0.624023 4.83642 0.640242 4.76049 0.67175C4.68456 0.703258 4.61559 0.749437 4.55753 0.807641L3.75003 1.61639L2.94253 0.807641ZM2.67128 2.30514L3.30878 2.94264C3.42599 3.05981 3.58493 3.12563 3.75066 3.12563C3.91638 3.12563 4.07533 3.05981 4.19253 2.94264L5.00003 2.13389L5.80753 2.94264C5.86559 3.00084 5.93456 3.04702 6.01049 3.07853C6.08642 3.11004 6.16782 3.12626 6.25003 3.12626C6.33224 3.12626 6.41364 3.11004 6.48957 3.07853C6.5655 3.04702 6.63447 3.00084 6.69253 2.94264L7.50003 2.13389L8.30753 2.94264C8.36559 3.00084 8.43456 3.04702 8.51049 3.07853C8.58642 3.11004 8.66782 3.12626 8.75003 3.12626C8.83224 3.12626 8.91364 3.11004 8.98957 3.07853C9.0655 3.04702 9.13447 3.00084 9.19253 2.94264L10 2.13389L10.8075 2.94264C10.8656 3.00084 10.9346 3.04702 11.0105 3.07853C11.0864 3.11004 11.1678 3.12626 11.25 3.12626C11.3322 3.12626 11.4136 3.11004 11.4896 3.07853C11.5655 3.04702 11.6345 3.00084 11.6925 2.94264L12.5 2.13389L13.3075 2.94264C13.3656 3.00084 13.4346 3.04702 13.5105 3.07853C13.5864 3.11004 13.6678 3.12626 13.75 3.12626C13.8322 3.12626 13.9136 3.11004 13.9896 3.07853C14.0655 3.04702 14.1345 3.00084 14.1925 2.94264L15 2.13389L15.8075 2.94264C15.8656 3.00084 15.9346 3.04702 16.0105 3.07853C16.0864 3.11004 16.1678 3.12626 16.25 3.12626C16.3322 3.12626 16.4136 3.11004 16.4896 3.07853C16.5655 3.04702 16.6345 3.00084 16.6925 2.94264L17.3288 2.30514L17.5 2.64764V18.7501H2.50003V2.64764L2.67128 2.30514Z" fill="black"/>
</svg>
