<svg width="18" height="18" viewBox="0 0 18 18" fill="none" xmlns="http://www.w3.org/2000/svg">
<path d="M12.3801 7.76923V4.07692C12.3801 2.37759 10.8668 1 9 1C7.13322 1 5.6199 2.37759 5.6199 4.07692V7.76923M15.8558 6.13414L16.9943 15.9803C17.0573 16.5253 16.5879 17 15.9859 17H2.01414C1.41211 17 0.942657 16.5253 1.00568 15.9803L2.14424 6.13414C2.19856 5.66434 2.63376 5.30769 3.1527 5.30769H14.8473C15.3662 5.30769 15.8014 5.66434 15.8558 6.13414ZM5.95791 7.76923C5.95791 7.93916 5.80658 8.07692 5.6199 8.07692C5.43323 8.07692 5.28189 7.93916 5.28189 7.76923C5.28189 7.5993 5.43323 7.46154 5.6199 7.46154C5.80658 7.46154 5.95791 7.5993 5.95791 7.76923ZM12.7181 7.76923C12.7181 7.93916 12.5668 8.07692 12.3801 8.07692C12.1934 8.07692 12.0421 7.93916 12.0421 7.76923C12.0421 7.5993 12.1934 7.46154 12.3801 7.46154C12.5668 7.46154 12.7181 7.5993 12.7181 7.76923Z" stroke="#0F172A" stroke-width="1.5" stroke-linecap="round" stroke-linejoin="round"/>
</svg>
