<svg width="20" height="20" viewBox="0 0 20 20" fill="none" xmlns="http://www.w3.org/2000/svg">
<path fill-rule="evenodd" clip-rule="evenodd" d="M11.8152 0.852435C11.9609 0.706807 12.1585 0.625 12.3645 0.625C12.5705 0.625 12.7681 0.706807 12.9138 0.852435L14.6357 2.57638C14.6363 2.57692 14.6368 2.57746 14.6374 2.57801C14.7755 2.71569 14.8567 2.90032 14.8648 3.09519C14.873 3.29083 14.8069 3.48234 14.6799 3.63133L14.6787 3.63263C14.482 3.86199 14.3791 4.15715 14.3907 4.4591C14.4022 4.76095 14.5272 5.04733 14.7407 5.261C14.9546 5.47386 15.241 5.59823 15.5426 5.60926C15.8446 5.62031 16.1396 5.51697 16.3686 5.31992L16.3706 5.31818C16.5196 5.19111 16.7111 5.12504 16.9068 5.13322C17.1018 5.14138 17.2866 5.22272 17.4243 5.36101C17.4247 5.36144 17.4251 5.36187 17.4256 5.36231L19.1475 7.08418C19.2931 7.22987 19.375 7.42754 19.375 7.63354C19.375 7.83955 19.2932 8.03711 19.1476 8.1828L16.3999 10.9305C16.3998 10.9305 16.3999 10.9305 16.3999 10.9305C16.2301 11.1003 16.023 11.2284 15.7952 11.3044C15.7512 11.3192 15.7112 11.344 15.6784 11.3769C15.6456 11.4098 15.6209 11.4499 15.6063 11.494L15.6059 11.4952C15.5299 11.7232 15.402 11.9304 15.2323 12.1004L8.18494 19.1474C8.03925 19.293 7.8416 19.3749 7.63559 19.3749C7.42958 19.3749 7.23202 19.2931 7.08633 19.1475L5.36435 17.4255L5.80434 16.9816L5.3624 17.4235L5.36306 17.4242C5.22477 17.2865 5.14342 17.1017 5.13527 16.9067C5.12708 16.711 5.19315 16.5195 5.32023 16.3705L5.3216 16.3689C5.51851 16.1396 5.62156 15.8444 5.61011 15.5424C5.59865 15.2404 5.47355 14.9539 5.25984 14.7402C5.04613 14.5264 4.75958 14.4013 4.45757 14.3899C4.15555 14.3784 3.86035 14.4815 3.63107 14.6784L3.62947 14.6798C3.48048 14.8068 3.28897 14.8729 3.09333 14.8647C2.89827 14.8566 2.71347 14.7752 2.57575 14.6369L2.57646 14.6376L3.01836 14.1957L2.57451 14.6356L0.852631 12.9138C0.707003 12.7681 0.625092 12.5704 0.625092 12.3644C0.625092 12.1584 0.706899 11.9608 0.852527 11.8151L7.89916 4.77007C8.0691 4.60046 8.27647 4.47225 8.50422 4.39626C8.54821 4.38149 8.58816 4.35669 8.62092 4.32383C8.65373 4.2909 8.67843 4.25078 8.69304 4.20664L8.6934 4.20557C8.76938 3.97743 8.89748 3.77014 9.06753 3.60014L11.8152 0.852435ZM12.3643 2.07113L9.95136 4.48408C9.91865 4.51678 9.89396 4.5567 9.87934 4.60058L9.28642 4.40309L9.8797 4.59951C9.80405 4.82801 9.67619 5.03575 9.50627 5.20623C9.33636 5.37672 9.12905 5.50527 8.9008 5.58168L8.89997 5.58196C8.85575 5.59669 8.81556 5.6215 8.78257 5.65443L2.07107 12.3644L3.17887 13.4722C3.57786 13.2397 4.0374 13.1231 4.50493 13.1408C5.12186 13.1642 5.70718 13.4197 6.14372 13.8563C6.58026 14.2928 6.83581 14.8781 6.85921 15.4951C6.87694 15.9626 6.76034 16.4221 6.52776 16.8211L7.6356 17.929L14.3475 11.2174C14.3475 11.2174 14.3475 11.2174 14.3475 11.2174C14.3804 11.1844 14.4053 11.1442 14.42 11.1L15.0129 11.2976L14.4196 11.1012C14.4953 10.8727 14.6231 10.6649 14.793 10.4944C14.9629 10.324 15.1703 10.1954 15.3985 10.119L15.3994 10.1187C15.4433 10.1041 15.4832 10.0794 15.5159 10.0467L17.929 7.63354L16.8214 6.52593C16.423 6.75857 15.964 6.87551 15.4969 6.85843C14.8803 6.83587 14.2948 6.58137 13.8577 6.14581L13.8569 6.14494C13.4206 5.7085 13.1651 5.12344 13.1416 4.50676C13.1237 4.03927 13.2402 3.57973 13.4726 3.18068L12.3643 2.07113ZM16.5378 6.24228L16.5397 6.24423C16.5391 6.24359 16.5384 6.24293 16.5378 6.24228Z" fill="black"/>
<path fill-rule="evenodd" clip-rule="evenodd" d="M8.69844 4.39986C8.94252 4.15578 9.33825 4.15578 9.58232 4.39986L10.2272 5.04478C10.4713 5.28885 10.4713 5.68458 10.2272 5.92866C9.98317 6.17274 9.58744 6.17274 9.34336 5.92866L8.69844 5.28374C8.45436 5.03966 8.45436 4.64393 8.69844 4.39986ZM10.6326 6.33482C10.8766 6.09063 11.2723 6.09045 11.5165 6.33442L11.9466 6.76411C12.1908 7.00807 12.1909 7.4038 11.947 7.64799C11.703 7.89218 11.3073 7.89236 11.0631 7.64839L10.633 7.2187C10.3888 6.97474 10.3886 6.57901 10.6326 6.33482ZM12.3529 8.05395C12.5971 7.80998 12.9929 7.81016 13.2368 8.05435L13.6665 8.48443C13.9105 8.72862 13.9103 9.12435 13.6661 9.36831C13.4219 9.61228 13.0262 9.6121 12.7822 9.36791L12.3525 8.93783C12.1086 8.69365 12.1087 8.29792 12.3529 8.05395ZM14.0723 9.77368C14.3163 9.5296 14.7121 9.5296 14.9562 9.77368L15.6011 10.4186C15.8451 10.6627 15.8451 11.0584 15.6011 11.3025C15.357 11.5466 14.9613 11.5466 14.7172 11.3025L14.0723 10.6576C13.8282 10.4135 13.8282 10.0178 14.0723 9.77368Z" fill="black"/>
</svg>
